<?xml version="1.0" standalone="no"?>
<!DOCTYPE svg PUBLIC "-//W3C//DTD SVG 20010904//EN"
 "http://www.w3.org/TR/2001/REC-SVG-20010904/DTD/svg10.dtd">
<svg version="1.0" xmlns="http://www.w3.org/2000/svg"
  viewBox="0 0 416.000000 137.000000"
 preserveAspectRatio="xMidYMid meet">

<g transform="translate(0.000000,137.000000) scale(0.100000,-0.100000)"
 stroke="none">
<path d="M530 1182 c-36 -9 -87 -30 -115 -46 -71 -42 -158 -132 -193 -202 -46
-92 -48 -115 -5 -49 92 140 223 215 376 215 65 0 105 -17 155 -63 31 -30 72
-118 72 -157 0 -34 16 -22 31 22 42 128 -15 247 -135 283 -63 19 -105 18 -186
-3z"/>
<path d="M2010 1061 c-142 -46 -212 -184 -164 -324 11 -32 32 -61 66 -92 77
-69 155 -83 244 -41 62 29 109 84 131 153 32 100 -14 218 -108 276 -48 29
-125 42 -169 28z m92 -91 c44 -13 94 -68 103 -116 14 -78 -43 -165 -118 -179
-53 -10 -113 19 -142 70 -50 85 -16 188 75 224 33 13 38 13 82 1z"/>
<path d="M1400 1055 c0 -2 38 -69 85 -149 l85 -145 0 -86 0 -85 45 0 45 0 0
79 0 80 90 149 c50 83 90 153 90 156 0 3 -22 6 -48 6 l-48 0 -61 -106 -61
-106 -62 106 -62 106 -49 0 c-27 0 -49 -2 -49 -5z"/>
<path d="M2362 849 l3 -211 28 -24 c27 -23 33 -24 198 -24 234 0 219 -18 219
260 l0 210 -45 0 -45 0 0 -190 0 -190 -135 0 -135 0 0 190 0 190 -46 0 -45 0
3 -211z"/>
<path d="M2890 825 l0 -235 45 0 45 0 0 155 c0 85 4 155 8 155 4 0 73 -70 152
-155 118 -126 150 -154 173 -155 l27 0 0 235 0 235 -42 0 -43 0 2 -150 c1 -82
-1 -150 -5 -150 -4 0 -16 10 -26 23 -11 12 -73 79 -139 150 -113 120 -121 127
-158 127 l-39 0 0 -235z"/>
<path d="M3462 1053 c-34 -13 -42 -59 -42 -238 0 -240 -17 -225 250 -225 l200
0 0 140 0 140 -135 0 -135 0 0 -45 0 -45 90 0 90 0 0 -50 0 -50 -135 0 -135 0
0 145 0 145 175 0 175 0 0 45 0 45 -192 -1 c-106 0 -199 -3 -206 -6z"/>
<path d="M1155 765 c2 -14 0 -25 -4 -25 -4 0 -12 -26 -19 -59 -34 -165 -155
-289 -217 -221 -23 26 -14 88 23 150 35 59 37 73 9 57 -24 -13 -37 -27 -37
-41 0 -6 7 -1 16 10 14 18 15 18 4 -3 -13 -28 -14 -28 -36 -5 -15 14 -17 14
-12 1 6 -16 -28 -46 -46 -41 -10 3 -73 -25 -79 -36 -2 -4 -2 -1 -1 6 5 19 -14
14 -26 -7 -7 -14 -6 -21 3 -24 7 -3 4 -6 -6 -6 -10 -1 -15 -5 -12 -11 3 -5 2
-10 -3 -10 -16 0 -24 -85 -12 -133 7 -24 26 -61 43 -82 83 -101 227 -84 353
42 109 108 168 299 133 426 -9 33 -13 37 -43 37 -30 0 -33 -3 -31 -25z"/>
<path d="M2000 445 c0 -78 3 -95 15 -95 12 0 15 13 15 60 l0 60 40 0 39 0 3
-57 c2 -35 8 -58 16 -61 10 -3 12 13 10 70 l-3 73 -52 3 c-45 3 -53 6 -53 23
0 10 -7 19 -15 19 -12 0 -15 -17 -15 -95z"/>
<path d="M2490 445 c0 -78 3 -95 15 -95 12 0 15 17 15 95 0 78 -3 95 -15 95
-12 0 -15 -17 -15 -95z"/>
<path d="M1540 485 c0 -9 9 -15 25 -15 22 0 24 -4 27 -57 4 -81 28 -85 28 -4
l0 61 30 0 c20 0 30 5 30 15 0 12 -14 15 -70 15 -56 0 -70 -3 -70 -15z"/>
<path d="M1703 474 c-64 -64 29 -163 98 -104 l24 20 -49 -3 c-32 -1 -50 2 -53
11 -3 9 11 12 51 12 48 0 56 3 56 19 0 10 -9 30 -21 45 -27 35 -71 35 -106 0z
m87 -19 c11 -13 7 -15 -29 -15 -38 0 -50 8 -34 23 12 12 50 7 63 -8z"/>
<path d="M1870 480 c-30 -30 -27 -83 6 -109 30 -24 61 -26 87 -7 27 21 21 27
-24 24 -48 -3 -66 14 -55 57 7 26 10 27 47 22 44 -6 60 6 30 22 -31 17 -69 13
-91 -9z"/>
<path d="M2170 425 c0 -57 3 -76 13 -72 7 2 12 23 12 58 l0 54 37 3 37 3 3
-57 c2 -36 8 -59 16 -62 10 -3 12 13 10 70 l-3 73 -62 3 -63 3 0 -76z"/>
<path d="M2345 475 c-14 -13 -25 -36 -25 -50 0 -33 42 -75 75 -75 33 0 75 42
75 75 0 33 -42 75 -75 75 -14 0 -37 -11 -50 -25z m83 -17 c30 -30 3 -82 -40
-76 -29 4 -47 50 -28 72 15 19 51 21 68 4z"/>
<path d="M2561 474 c-28 -35 -26 -69 4 -99 48 -49 119 -19 119 50 0 70 -81
102 -123 49z m90 -25 c16 -30 -3 -69 -34 -69 -29 0 -47 17 -47 45 0 45 60 63
81 24z"/>
<path d="M2714 486 c-3 -7 -4 -40 -2 -72 l3 -59 53 -3 c52 -3 75 -22 26 -22
-31 0 -28 -24 5 -28 42 -6 51 13 51 109 l0 89 -65 0 c-46 0 -67 -4 -71 -14z
m106 -61 l0 -45 -39 0 c-29 0 -41 5 -44 18 -4 13 -3 55 2 70 1 1 19 2 41 2
l40 0 0 -45z"/>
<path d="M2870 490 c0 -5 11 -39 25 -76 18 -48 22 -71 15 -84 -13 -25 -13 -30
4 -30 9 0 28 36 50 93 39 101 41 107 25 107 -5 0 -20 -23 -33 -52 l-23 -52
-17 52 c-10 30 -24 52 -32 52 -8 0 -14 -4 -14 -10z"/>
<path d="M3097 493 c-4 -3 -7 -34 -7 -69 0 -71 3 -74 86 -74 l54 0 0 45 0 45
-40 0 c-29 0 -40 -4 -40 -15 0 -9 9 -15 25 -15 16 0 25 -6 25 -15 0 -11 -11
-15 -40 -15 l-40 0 0 45 0 45 55 0 c42 0 55 3 55 15 0 12 -14 15 -63 15 -35 0
-67 -3 -70 -7z"/>
<path d="M3260 424 c0 -54 3 -75 12 -72 8 3 11 24 9 61 l-2 57 40 0 c30 0 41
-4 41 -15 0 -20 19 -19 26 0 11 28 -16 45 -72 45 l-54 0 0 -76z"/>
<path d="M3421 474 c-28 -35 -26 -69 4 -99 48 -49 119 -19 119 50 0 70 -81
102 -123 49z m90 -25 c16 -30 -3 -69 -34 -69 -29 0 -47 17 -47 45 0 45 60 63
81 24z"/>
<path d="M3570 432 c0 -54 3 -71 16 -76 27 -10 99 -7 112 6 7 7 12 39 12 75 0
49 -3 63 -15 63 -12 0 -15 -13 -15 -61 l0 -60 -42 3 -41 3 -1 54 c-1 34 -6 56
-13 58 -10 4 -13 -14 -13 -65z"/>
<path d="M3732 403 c2 -66 7 -98 16 -101 7 -2 12 6 12 22 0 23 4 25 53 28 l52
3 6 55 c9 81 1 90 -77 90 l-65 0 3 -97z m118 22 l0 -45 -45 0 -45 0 0 45 0 45
45 0 45 0 0 -45z"/>
<path d="M578 403 c7 -3 16 -2 19 1 4 3 -2 6 -13 5 -11 0 -14 -3 -6 -6z"/>
<path d="M531 379 c-24 -5 -49 -6 -55 -2 -6 3 -8 3 -4 -2 4 -4 3 -14 -3 -21
-12 -15 -3 -36 15 -32 6 2 11 -1 11 -7 0 -5 -3 -9 -7 -7 -19 6 -5 -17 30 -50
65 -62 122 -85 242 -94 l55 -4 -37 14 c-21 7 -49 21 -63 30 -14 9 -30 14 -34
11 -11 -6 -41 21 -41 37 0 6 9 0 20 -13 11 -13 6 0 -11 29 -18 28 -36 52 -41
52 -5 0 -7 4 -3 10 9 14 -6 60 -19 59 -6 -1 -31 -5 -55 -10z"/>
<path d="M341 286 c36 -32 123 -96 133 -96 3 0 -13 19 -34 41 -22 23 -42 50
-45 60 -4 11 -14 20 -23 20 -9 1 -28 3 -41 4 -22 2 -22 1 10 -29z"/>
</g>
</svg>
